<svg width="12" height="16" viewBox="0 0 12 16" fill="none" xmlns="http://www.w3.org/2000/svg">
<path fill-rule="evenodd" clip-rule="evenodd" d="M0.749991 14C0.221799 14 -0.131457 13.4734 0.0448263 12.994L0.0791707 12.9146L0.945734 11.1815C1.27378 10.5254 1.46029 9.80865 1.49431 9.0777L1.49999 8.83359V6.5C1.49999 4.2702 3.12178 2.41919 5.25013 2.06219L5.24999 1.25C5.24999 0.835786 5.58578 0.5 5.99999 0.5C6.4142 0.5 6.74999 0.835786 6.74999 1.25L6.7506 2.06232C8.81947 2.4097 10.4095 4.16879 10.4963 6.31511L10.5 6.5V8.83359C10.5 9.56713 10.6537 10.2916 10.9502 10.9606L11.0542 11.1815L11.9208 12.9146C12.157 13.387 11.844 13.9385 11.3363 13.9952L11.25 14H7.49999C7.49999 14.8284 6.82842 15.5 5.99999 15.5C5.17156 15.5 4.49999 14.8284 4.49999 14H0.749991ZM5.99998 3.5C4.39333 3.5 3.08167 4.76298 3.00365 6.35027L2.99998 6.5V8.83359C2.99998 9.79417 2.79497 10.7427 2.39983 11.616L2.28736 11.8523L1.9635 12.5H10.0365L9.71259 11.8523C9.28301 10.9931 9.0422 10.0531 9.00505 9.09522L8.99998 8.83359V6.5C8.99998 4.84315 7.65683 3.5 5.99998 3.5Z" fill="white"/>
</svg>
