<svg width="28" height="34" viewBox="0 0 28 34" fill="none" xmlns="http://www.w3.org/2000/svg">
<path fill-rule="evenodd" clip-rule="evenodd" d="M19 30.3333C19.9204 30.3333 20.6666 31.0795 20.6666 32C20.6666 32.9205 19.9204 33.6667 19 33.6667H8.99997C8.0795 33.6667 7.33331 32.9205 7.33331 32C7.33331 31.0795 8.0795 30.3333 8.99997 30.3333H19ZM13.9994 0.333328C21.8543 0.333328 27.3333 5.06863 27.3333 12.631C27.3333 15.7157 26.1939 18.2709 24.0219 21.0821L23.6279 21.581C23.2792 22.0135 21.9541 23.5691 21.5077 24.1194L21.2547 24.4455C20.9037 24.9164 20.7215 25.2406 20.6732 25.4114L20.6323 25.6704C20.4751 26.4355 19.7989 27 19 27H8.99996C8.20102 27 7.52481 26.4355 7.3676 25.6704L7.32671 25.4114C7.27836 25.2406 7.0962 24.9163 6.74523 24.4454L6.49217 24.1193L4.37201 21.5808L3.97805 21.082C1.8062 18.2708 0.666626 15.7157 0.666626 12.6311C0.666626 5.0688 6.14547 0.333328 13.9994 0.333328ZM13.9994 3.66666C7.88718 3.66666 3.99993 7.02649 3.99993 12.6311C3.99993 14.8339 4.8545 16.7591 6.60491 19.0297L6.96695 19.4887C7.24792 19.8372 8.39908 21.19 8.96844 21.8823L9.21257 22.1844C9.63262 22.7229 9.96084 23.204 10.1989 23.6667H17.801L17.9546 23.3865C18.174 23.0092 18.4513 22.6152 18.7873 22.1845L19.741 21.0315C20.2716 20.3998 20.8456 19.7211 21.0329 19.4888L21.395 19.0299C23.1455 16.7592 23.9999 14.834 23.9999 12.6311C23.9999 7.02637 20.1125 3.66666 13.9994 3.66666Z" fill="#273B89"/>
</svg>
