<svg width="34" height="34" viewBox="0 0 34 34" fill="none" xmlns="http://www.w3.org/2000/svg">
<path fill-rule="evenodd" clip-rule="evenodd" d="M31.9999 30.3333C32.9204 30.3333 33.6666 31.0795 33.6666 32C33.6666 32.9205 32.9204 33.6667 31.9999 33.6667H1.99992C1.07944 33.6667 0.333252 32.9205 0.333252 32C0.333252 31.0795 1.07944 30.3333 1.99992 30.3333H31.9999ZM7.48809 19.1548L25.8214 0.821484C26.4222 0.220677 27.3676 0.174461 28.0214 0.682836L28.1784 0.821484L33.1784 5.82148C33.7793 6.42229 33.8255 7.36767 33.3171 8.02149L33.1784 8.17851L14.8451 26.5118C14.5846 26.7723 14.2468 26.9377 13.8857 26.9855L13.6666 27H8.6666C7.81187 27 7.10742 26.3566 7.01115 25.5277L6.99993 25.3333V20.3333C6.99993 19.965 7.12187 19.6092 7.3434 19.3199L7.48809 19.1548L25.8214 0.821484L7.48809 19.1548ZM26.9999 4.35702L10.3332 21.0237V23.6667H12.9762L29.6429 7L26.9999 4.35702Z" fill="#273B89"/>
</svg>
