<svg width="22" height="22" viewBox="0 0 22 22" fill="none" xmlns="http://www.w3.org/2000/svg">
<g opacity="0.8">
<path d="M8.25004 3.66663V20.1666M5.50004 3.66663H15.5834C16.0696 3.66663 16.5359 3.85978 16.8797 4.2036C17.2236 4.54741 17.4167 5.01373 17.4167 5.49996V16.5C17.4167 16.9862 17.2236 17.4525 16.8797 17.7963C16.5359 18.1401 16.0696 18.3333 15.5834 18.3333H5.50004C5.25693 18.3333 5.02377 18.2367 4.85186 18.0648C4.67995 17.8929 4.58337 17.6597 4.58337 17.4166V4.58329C4.58337 4.34018 4.67995 4.10702 4.85186 3.93511C5.02377 3.7632 5.25693 3.66663 5.50004 3.66663V3.66663Z" stroke="white" stroke-width="1.83333" stroke-linecap="round" stroke-linejoin="round"/>
<path d="M11.9166 7.33337H13.75" stroke="white" stroke-width="1.83333" stroke-linecap="round" stroke-linejoin="round"/>
<path d="M11.9166 11H13.75" stroke="white" stroke-width="1.83333" stroke-linecap="round" stroke-linejoin="round"/>
</g>
</svg>
