<svg width="16" height="16" viewBox="0 0 16 16" fill="none" xmlns="http://www.w3.org/2000/svg">
<path fill-rule="evenodd" clip-rule="evenodd" d="M6.5 9.5C6.91421 9.5 7.25 9.83579 7.25 10.25V14.75C7.25 15.1642 6.91421 15.5 6.5 15.5H1.25C0.835786 15.5 0.5 15.1642 0.5 14.75V10.25C0.5 9.83579 0.835786 9.5 1.25 9.5H6.5ZM14.75 5.75C15.1642 5.75 15.5 6.08579 15.5 6.5V14.75C15.5 15.1642 15.1642 15.5 14.75 15.5H9.5C9.08579 15.5 8.75 15.1642 8.75 14.75V6.5C8.75 6.08579 9.08579 5.75 9.5 5.75H14.75ZM6.5 0.5C6.91421 0.5 7.25 0.835786 7.25 1.25V7.25C7.25 7.66421 6.91421 8 6.5 8H1.25C0.835786 8 0.5 7.66421 0.5 7.25V1.25C0.5 0.835786 0.835786 0.5 1.25 0.5H6.5ZM14.75 0.5C15.1642 0.5 15.5 0.835786 15.5 1.25V3.5C15.5 3.91421 15.1642 4.25 14.75 4.25H9.5C9.08579 4.25 8.75 3.91421 8.75 3.5V1.25C8.75 0.835786 9.08579 0.5 9.5 0.5H14.75Z" fill="#273B89"/>
</svg>
