<svg width="21" height="22" viewBox="0 0 21 22" fill="none" xmlns="http://www.w3.org/2000/svg">
<g opacity="0.8">
<path d="M10.5 18.3334L7.875 15.5834H6.125C5.42881 15.5834 4.76113 15.2936 4.26884 14.7779C3.77656 14.2622 3.5 13.5627 3.5 12.8334V7.33337C3.5 6.60403 3.77656 5.90456 4.26884 5.38883C4.76113 4.87311 5.42881 4.58337 6.125 4.58337H14.875C15.5712 4.58337 16.2389 4.87311 16.7312 5.38883C17.2234 5.90456 17.5 6.60403 17.5 7.33337V12.8334C17.5 13.5627 17.2234 14.2622 16.7312 14.7779C16.2389 15.2936 15.5712 15.5834 14.875 15.5834H13.125L10.5 18.3334Z" stroke="white" stroke-width="1.83333" stroke-linecap="round" stroke-linejoin="round"/>
<path d="M7 8.25H14" stroke="white" stroke-width="1.83333" stroke-linecap="round" stroke-linejoin="round"/>
<path d="M7 11.9166H12.25" stroke="white" stroke-width="1.83333" stroke-linecap="round" stroke-linejoin="round"/>
</g>
</svg>
