<svg width="16" height="12" viewBox="0 0 16 12" fill="none" xmlns="http://www.w3.org/2000/svg">
<path fill-rule="evenodd" clip-rule="evenodd" d="M8.47758 2H13C14.6569 2 16 3.34315 16 5V9C16 10.6569 14.6569 12 13 12H3C1.34315 12 0 10.6569 0 9V3C0 1.34315 1.34315 0 3 0H6.38367C6.68571 0 6.97157 0.136521 7.16143 0.37144L8.47758 2ZM5.90608 2H2.99999C2.44771 2 1.99999 2.44772 1.99999 3V9C1.99999 9.55229 2.44771 10 2.99999 10H13C13.5523 10 14 9.55229 14 9V5C14 4.44772 13.5523 4 13 4H7.99999C7.69795 4 7.41209 3.86348 7.22223 3.62856L5.90608 2Z" fill="white"/>
</svg>
