<svg width="21" height="21" viewBox="0 0 21 21" fill="none" xmlns="http://www.w3.org/2000/svg">
<g opacity="0.8">
<path d="M11.375 17.5L17.5 11.375" stroke="white" stroke-width="1.83333" stroke-linecap="round" stroke-linejoin="round"/>
<path d="M11.375 17.5V12.25C11.375 12.0179 11.4672 11.7954 11.6313 11.6313C11.7954 11.4672 12.0179 11.375 12.25 11.375H17.5V5.25C17.5 4.78587 17.3156 4.34075 16.9874 4.01256C16.6592 3.68437 16.2141 3.5 15.75 3.5H5.25C4.78587 3.5 4.34075 3.68437 4.01256 4.01256C3.68437 4.34075 3.5 4.78587 3.5 5.25V15.75C3.5 16.2141 3.68437 16.6592 4.01256 16.9874C4.34075 17.3156 4.78587 17.5 5.25 17.5H11.375Z" stroke="white" stroke-width="1.83333" stroke-linecap="round" stroke-linejoin="round"/>
</g>
</svg>
