<svg width="14" height="14" viewBox="0 0 14 14" fill="none" xmlns="http://www.w3.org/2000/svg">
<path fill-rule="evenodd" clip-rule="evenodd" d="M1.60027 2.94909C1.97345 2.45232 2.67868 2.35213 3.17545 2.7253C3.67221 3.09848 3.77241 3.80371 3.39923 4.30048C2.81843 5.07364 2.5 6.0112 2.5 7C2.5 9.48528 4.51472 11.5 7 11.5C9.48528 11.5 11.5 9.48528 11.5 7C11.5 6.0116 11.1818 5.07438 10.6014 4.30138C10.2284 3.80452 10.3288 3.09932 10.8256 2.72626C11.3225 2.35321 12.0277 2.45358 12.4007 2.95045C13.2712 4.1098 13.75 5.52014 13.75 7C13.75 10.7279 10.7279 13.75 7 13.75C3.27208 13.75 0.25 10.7279 0.25 7C0.25 5.51955 0.729176 4.10869 1.60027 2.94909ZM7 0.25C7.62132 0.25 8.125 0.75368 8.125 1.375V5.875C8.125 6.49632 7.62132 7 7 7C6.37868 7 5.875 6.49632 5.875 5.875V1.375C5.875 0.75368 6.37868 0.25 7 0.25Z" fill="white"/>
</svg>
