<svg width="12" height="16" viewBox="0 0 12 16" fill="none" xmlns="http://www.w3.org/2000/svg">
<path fill-rule="evenodd" clip-rule="evenodd" d="M8.25 14C8.66422 14 9 14.3358 9 14.75C9 15.1642 8.66422 15.5 8.25 15.5H3.75C3.33579 15.5 3 15.1642 3 14.75C3 14.3358 3.33579 14 3.75 14H8.25ZM5.99974 0.5C9.53444 0.5 12 2.63088 12 6.03396C12 7.42209 11.4873 8.57193 10.5099 9.83696L10.3326 10.0615C10.1757 10.2561 9.57937 10.9561 9.3785 11.2037L9.26462 11.3505C9.10668 11.5624 9.02471 11.7083 9.00296 11.7851L8.98456 11.9017C8.91381 12.246 8.60952 12.5 8.25 12.5H3.75C3.39048 12.5 3.08618 12.246 3.01544 11.9017L2.99704 11.7851C2.97528 11.7083 2.89331 11.5624 2.73537 11.3504L2.62149 11.2037L1.66742 10.0614L1.49014 9.83688C0.512808 8.57188 0 7.42208 0 6.03401C0 2.63096 2.46548 0.5 5.99974 0.5ZM5.99973 2C3.24924 2 1.49998 3.51192 1.49998 6.03401C1.49998 7.02524 1.88454 7.89161 2.67222 8.91339L2.83514 9.1199C2.96158 9.27672 3.4796 9.88548 3.73581 10.197L3.84567 10.333C4.03469 10.5753 4.18239 10.7918 4.28952 11H7.71045L7.7796 10.8739C7.87831 10.7042 8.00308 10.5268 8.1543 10.333L8.58345 9.81419C8.82222 9.52989 9.08055 9.2245 9.16483 9.11996L9.32776 8.91345C10.1155 7.89166 10.5 7.02529 10.5 6.03401C10.5 3.51187 8.75066 2 5.99973 2Z" fill="white"/>
</svg>
