<svg width="16" height="16" viewBox="0 0 16 16" fill="none" xmlns="http://www.w3.org/2000/svg">
<path fill-rule="evenodd" clip-rule="evenodd" d="M7.17318 0.501481L8.76506 0.501404C8.81319 0.503638 8.85546 0.509143 8.91481 0.522067C9.35015 0.61686 9.51566 0.773177 9.92081 1.73054L9.98684 1.88846L10.2415 2.51935L10.2624 2.52796L10.5904 2.37945C11.3049 2.05995 11.6732 1.92538 11.9209 1.88783L11.9722 1.88124L12.0657 1.87619C12.2886 1.87619 12.5158 1.95517 12.6896 2.09268L12.7718 2.16622L13.7895 3.1797L13.8602 3.25447C14.1799 3.60662 14.2098 3.85627 13.8562 4.76616L13.7385 5.05969L13.4612 5.71592L13.4664 5.72873L14.1018 5.96598L14.408 6.08704C15.1993 6.41052 15.3618 6.58293 15.4676 6.97896C15.4889 7.05882 15.4965 7.11322 15.4989 7.18075L15.5 7.25409V8.68488C15.5 8.78659 15.4965 8.84404 15.4715 8.94456C15.3662 9.36734 15.2099 9.52833 14.2591 9.92997L14.1023 9.99546L13.4757 10.2483L13.4714 10.2588L13.6979 10.7538C14.2613 12.0059 14.281 12.2804 13.9107 12.6927L13.8644 12.743L12.8197 13.7868C12.6327 13.9759 12.3662 14.08 12.1084 14.08C11.8895 14.08 11.5456 13.9759 10.9594 13.7408L10.6456 13.6123L10.2882 13.4611L10.2677 13.4696L10.083 13.9649C9.63078 15.1564 9.47586 15.3498 9.0113 15.4697C8.94265 15.4874 8.89355 15.495 8.8378 15.498L8.74591 15.5H7.31422C7.22487 15.5 7.17444 15.4973 7.08569 15.4781C6.65053 15.3837 6.48435 15.2271 6.07841 14.2691L6.01224 14.1111L5.7572 13.4799L5.73758 13.4718L5.26111 13.686C4.499 14.0215 4.16885 14.1236 3.93354 14.1236C3.71319 14.1236 3.48881 14.0462 3.31031 13.9074L3.22512 13.8329L2.20882 12.8179L2.09277 12.6914C1.81406 12.3634 1.80036 12.1091 2.14245 11.2339L2.32072 10.7958L2.53833 10.2842L2.53379 10.2732L2.04113 10.0896C1.05281 9.71461 0.748235 9.54187 0.603498 9.2265L0.564349 9.12727L0.531646 9.0174C0.513142 8.94717 0.505245 8.89685 0.502037 8.83959L0.5 8.74514V7.31349C0.5 7.21098 0.503553 7.15303 0.529079 7.05165C0.624246 6.67366 0.759321 6.50578 1.47085 6.18694L1.76574 6.0596L2.523 5.75337L2.52819 5.74076L2.24506 5.11607C1.77787 4.05492 1.73918 3.73182 2.03394 3.37096L2.07427 3.32361L2.16977 3.22239L3.18212 2.21233C3.3676 2.02583 3.6329 1.92069 3.89112 1.92069C4.07582 1.92069 4.34701 1.99377 4.78104 2.15816L5.2177 2.33126L5.71271 2.53873L5.733 2.53028L5.91912 2.03167C6.37554 0.831679 6.53846 0.631002 7.01991 0.523226C7.08064 0.509631 7.12396 0.503835 7.17318 0.501481ZM8.39226 1.99999H7.55606L7.43815 2.27638C7.39338 2.38626 7.34288 2.51461 7.28584 2.66359L7.02449 3.36269C6.96181 3.5282 6.84303 3.66529 6.69032 3.75103L6.61124 3.78952L5.9969 4.04516C5.8418 4.1097 5.67049 4.11994 5.5103 4.07598L5.41574 4.04311L4.68894 3.73675L4.29636 3.5802L4.03249 3.48281L3.43983 4.07412L3.50958 4.2503C3.53684 4.31666 3.56821 4.39085 3.60398 4.47351L3.72478 4.74746L4.02775 5.40978C4.10032 5.56751 4.11549 5.74446 4.07265 5.91056L4.03998 6.00868L3.78877 6.61912C3.72227 6.78074 3.60182 6.91318 3.44932 6.99485L3.3705 7.03136L2.55482 7.35924L2.14707 7.53402L2 7.60212V8.44975L2.17598 8.52604C2.2426 8.5539 2.31741 8.58428 2.40108 8.61742L2.67934 8.72541L3.35549 8.97651C3.52596 9.03796 3.66741 9.15862 3.75514 9.3149L3.79442 9.3959L4.04566 10.0046C4.11017 10.1608 4.11962 10.3334 4.07425 10.4943L4.04045 10.5892L3.74887 11.2734L3.566 11.7248L3.47691 11.9645L4.06961 12.5564L4.24609 12.4866C4.3111 12.4602 4.38234 12.4304 4.46001 12.3973L5.00439 12.1573L5.39698 11.9765C5.56127 11.898 5.74748 11.8824 5.92097 11.9306L6.0065 11.96L6.62445 12.2151C6.78825 12.2828 6.92189 12.4058 7.00306 12.5612L7.03916 12.6415L7.19295 13.0295L7.41179 13.5617L7.53844 13.8525L7.60712 14H8.44579L8.56556 13.7176L8.72155 13.3193L8.97556 12.6383C9.03819 12.4713 9.15787 12.333 9.31191 12.247L9.39168 12.2084L10.007 11.9545C10.1603 11.8912 10.3293 11.8809 10.4877 11.9234L10.5813 11.9553L11.1607 12.2011L11.5836 12.3733L11.815 12.4626L11.9678 12.5179L12.5611 11.9255L12.4468 11.6433L12.2753 11.2522L11.9717 10.5904C11.8989 10.4324 11.8836 10.2551 11.9267 10.0887L11.9595 9.99036L12.2103 9.38257C12.2764 9.2222 12.3957 9.09058 12.5468 9.00889L12.6249 8.97231L13.3157 8.6946L13.6684 8.54676L13.7654 8.5046L14 8.39724V7.55045L13.7648 7.45003L13.4461 7.32393L12.6418 7.02453C12.4717 6.96265 12.3308 6.84176 12.2435 6.68548L12.2044 6.60449L11.9536 5.99338C11.8896 5.83746 11.8804 5.66552 11.9256 5.50515L11.9593 5.41053L12.1921 4.86611C12.2527 4.72214 12.3055 4.59447 12.351 4.48163L12.4328 4.27528L12.5218 4.03414L11.9288 3.4436L11.7522 3.51347C11.6545 3.5533 11.5426 3.60056 11.4157 3.65575L11.2837 3.71361L10.5915 4.02753C10.4341 4.09969 10.2575 4.11469 10.0918 4.07196L9.99394 4.03939L9.37639 3.78554C9.21474 3.71909 9.08225 3.59868 9.00052 3.4462L8.96398 3.36739L8.74564 2.8211L8.5874 2.43838L8.49976 2.23483L8.39226 1.99999ZM8.00035 4.99999C9.65496 4.99999 11 6.34475 11 7.99934C11 9.65403 9.65486 11 8.00035 11C6.34537 11 5 9.65426 5 7.99934C5 6.34451 6.34527 4.99999 8.00035 4.99999ZM8.00036 6.49999C7.17351 6.49999 6.5 7.17312 6.5 7.99934C6.5 8.82592 7.17389 9.49999 8.00036 9.49999C8.82623 9.49999 9.5 8.8258 9.5 7.99934C9.5 7.17324 8.82661 6.49999 8.00036 6.49999Z" fill="white"/>
</svg>
